<?xml version="1.0" encoding="utf-8"?>
<!-- Generator: Adobe Illustrator 27.9.0, SVG Export Plug-In . SVG Version: 6.00 Build 0)  -->
<svg version="1.1" id="Layer_1" xmlns="http://www.w3.org/2000/svg" xmlns:xlink="http://www.w3.org/1999/xlink" x="0px" y="0px"
	 width="256px" height="256px" viewBox="0 0 256 256" style="enable-background:new 0 0 256 256;" xml:space="preserve">
<g id="R" style="display:none;">
	<path style="display:inline;" d="M256,128c0-35.346-14.327-67.346-37.49-90.51S163.346,0,128,0S60.654,14.327,37.49,37.49
		S0,92.654,0,128s14.327,67.346,37.49,90.51S92.654,256,128,256s67.346-14.327,90.51-37.49S256,163.346,256,128z"/>
	<path style="display:inline;" d="M256,128c0,35.346-14.327,67.346-37.49,90.51S163.346,256,128,256s-67.346-14.327-90.51-37.49
		S0,163.346,0,128s14.327-67.346,37.49-90.51S92.654,0,128,0s67.346,14.327,90.51,37.49S256,92.654,256,128z"/>
	<rect style="display:inline;fill:none;" width="256" height="256"/>
	<path style="display:inline;fill:#FBB040;" d="M72.026,215.308V40.692h62.113c33.925,0,61.115,24.945,61.115,58.62
		c0,21.453-11.226,40.91-29.934,51.637l36.669,64.358h-48.892l-31.68-56.127h-6.984v56.127L72.026,215.308L72.026,215.308z
		 M114.433,116.775h19.706c10.476,0,18.708-7.234,18.708-17.462c0-10.726-9.23-16.214-18.708-16.214h-19.706
		C114.433,83.098,114.433,116.775,114.433,116.775z"/>
	<path style="display:inline;fill:#EF4136;" d="M121.417,159.181h-6.985v56.127H72.026l21.203-21.203v-56.128h40.411
		L121.417,159.181z M114.433,83.098v33.676l-21.204,21.203V61.896h40.91c11.226,0,21.452,3.991,28.936,10.975l-15.217,14.967
		c-3.493-2.993-8.233-4.74-13.72-4.74L114.433,83.098L114.433,83.098z M201.989,215.308h-48.892l12.473-21.203l-31.93-56.128h0.499
		c21.951,0,39.911-16.464,39.911-38.665c0-10.726-4.24-19.706-10.975-26.441l14.967-14.967
		c11.224,10.976,17.212,25.444,17.212,41.408c0,21.453-11.226,40.91-29.934,51.637L201.989,215.308z"/>
</g>
<g id="OLD" style="display:none;">
	<rect id="bounds" style="display:inline;fill:none;" width="256" height="256"/>
	<path id="frommage" style="display:inline;fill:#FFD400;stroke:#EF4136;stroke-miterlimit:10;" d="M133.663,27.773h-11.327
		L37.64,222.486c14.473,6.304,29.731,11.145,45.587,14.329c14.473,2.906,29.444,4.432,44.773,4.432
		c32.123,0,62.677-6.702,90.36-18.761L133.663,27.773z"/>
	<polygon style="display:inline;fill:#FFD400;stroke:#00B425;stroke-width:0.5059;stroke-miterlimit:10;" points="236.096,39.773 
		243.999,26.086 236.096,23.878 228.194,26.086 	"/>
	<path style="display:inline;fill:#838A00;stroke:#000000;stroke-miterlimit:10;" d="M197.793,118.587
		c-7.939-4.584-16.73-6.34-25.219-5.601l-9.284-16.081c4.884-6.982,7.759-15.473,7.759-24.641c0-23.775-19.273-43.049-43.049-43.049
		S84.951,48.489,84.951,72.264c0,9.167,2.874,17.659,7.759,24.641l-9.284,16.081c-8.489-0.739-17.28,1.018-25.219,5.601
		c-20.59,11.888-27.644,38.216-15.757,58.805c11.888,20.59,38.216,27.644,58.805,15.757c7.939-4.584,13.856-11.319,17.46-19.039
		h18.569c3.604,7.721,9.521,14.456,17.46,19.039c20.59,11.888,46.918,4.833,58.805-15.757
		C225.438,156.802,218.383,130.474,197.793,118.587z"/>
</g>
<g id="CHZ">
	<rect id="bounds_00000044880843356315886100000005042419007550905269_" style="fill:none;" width="256" height="256"/>
	<path style="fill:#E9E200;stroke:#000000;stroke-width:0.8343;stroke-miterlimit:10;" d="M168.317,176.998
		c-10.985,0-19.749-9.506-18.515-20.741c0.945-8.6,7.931-15.53,16.537-16.42c2.286-0.236,4.498-0.058,6.57,0.469
		c3.928,0.998,7.753-2.05,7.857-6.101c0.051-1.994,0.077-4.036,0.077-6.13c0-134.101-105.686-64.309-105.686,0
		c0,47.185,57.789,97.914,87.902,66.923c3.61-3.716,6.821-8.61,9.488-14.823c0.699-1.629-0.59-3.455-2.353-3.274
		C169.577,176.966,168.951,176.998,168.317,176.998z"/>
	<path d="M207.08,162.884l9.317,9.317l2.323-2.323l-7.681-7.681c-0.395-0.395-0.739-0.845-0.924-1.24
		c-0.897-1.688-0.791-3.959,0.739-5.489c2.191-2.191,4.671-1.241,6.73,0.818l7.364,7.364l2.323-2.323l-7.628-7.628
		c-4.381-4.381-8.181-2.691-9.949-0.923c-2.111,2.111-2.403,4.777-1.821,6.624l-0.054,0.054l-2.243-1.98l-2.059,2.059
		C204.653,160.508,205.76,161.565,207.08,162.884z"/>
</g>
<g id="CIR" style="display:none;">
	
		<rect id="bounds_00000139258554081673562100000016323045885058057895_" style="display:inline;fill:none;" width="256" height="256"/>
	<path style="display:inline;fill:#FFFFFF;" d="M35.285,40.805C57.479,17.222,87.443,3.086,119.659,1.002l-0.129-2
		c-32.724,2.118-63.161,16.476-85.703,40.43L35.285,40.805z"/>
	<path style="display:inline;fill:#FFFFFF;" d="M0.785,131.903c-0.983-32.369,10.21-63.552,31.516-87.806l-1.506-1.323
		C9.152,67.411-2.217,99.086-1.219,131.963L0.785,131.903z"/>
	<path style="display:inline;fill:#FFFFFF;" d="M40.805,220.715c-23.583-22.193-37.719-52.158-39.803-84.373l-2,0.129
		c2.118,32.725,16.476,63.161,40.43,85.704L40.805,220.715z"/>
	<path style="display:inline;fill:#FFFFFF;" d="M131.903,255.215c-32.369,0.983-63.553-10.21-87.806-31.516l-1.323,1.506
		c24.637,21.642,56.312,33.011,89.19,32.014L131.903,255.215z"/>
	<path style="display:inline;fill:#FFFFFF;" d="M220.715,215.195c-22.193,23.583-52.158,37.719-84.373,39.803l0.129,2
		c32.725-2.117,63.161-16.476,85.704-40.43L220.715,215.195z"/>
	<path style="display:inline;fill:#FFFFFF;" d="M255.215,124.097c0.983,32.369-10.21,63.553-31.516,87.806l1.506,1.323
		c21.642-24.637,33.011-56.312,32.014-89.19L255.215,124.097z"/>
	<path style="display:inline;fill:#FFFFFF;" d="M215.195,35.285c23.583,22.193,37.719,52.158,39.803,84.373l2-0.129
		c-2.117-32.725-16.476-63.161-40.43-85.703L215.195,35.285z"/>
	<path style="display:inline;fill:#FFFFFF;" d="M124.097,0.785c32.369-0.983,63.553,10.21,87.806,31.516l1.323-1.506
		c-24.637-21.642-56.312-33.011-89.19-32.014L124.097,0.785z"/>
</g>
<g id="PLANE" style="display:none;">
	<rect style="display:inline;fill:#940004;" width="256" height="256"/>
</g>
</svg>
